HIERARCHY
ROOT joint_Root
{
	OFFSET 0.0 0.0 0.0
	CHANNELS 6 Xposition Yposition Zposition Zrotation Xrotation Yrotation 
	JOINT Hips
	{
		OFFSET -17.1583 93.1646 452.98
		CHANNELS 6 Xposition Yposition Zposition Zrotation Xrotation Yrotation 
		JOINT Spine
		{
			OFFSET 15.7357 0.0 0.0
			CHANNELS 6 Xposition Yposition Zposition Zrotation Xrotation Yrotation 
			JOINT Chest
			{
				OFFSET 8.98455 -0.406207 0.0
				CHANNELS 6 Xposition Yposition Zposition Zrotation Xrotation Yrotation 
				JOINT Neck
				{
					OFFSET 16.3773 0.0 0.0
					CHANNELS 6 Xposition Yposition Zposition Zrotation Xrotation Yrotation 
					JOINT Head
					{
						OFFSET 6.45672 0.0 0.0
						CHANNELS 6 Xposition Yposition Zposition Zrotation Xrotation Yrotation 
						End Site
						{
							OFFSET 0.0 0.0 0.0
						}
					}
				}
				JOINT Shoulder_L
				{
					OFFSET 12.9942 -0.242716 4.98039
					CHANNELS 6 Xposition Yposition Zposition Zrotation Xrotation Yrotation 
					JOINT UpperArm_L
					{
						OFFSET 5.34809 0.0 0.0
						CHANNELS 6 Xposition Yposition Zposition Zrotation Xrotation Yrotation 
						JOINT LowerArm_L
						{
							OFFSET 24.3286 1.87007e-05 0.0
							CHANNELS 6 Xposition Yposition Zposition Zrotation Xrotation Yrotation 
							JOINT Hand_L
							{
								OFFSET 22.2916 0.0 0.0
								CHANNELS 6 Xposition Yposition Zposition Zrotation Xrotation Yrotation 
								End Site
								{
									OFFSET 0.0 0.0 0.0
								}
							}
						}
					}
				}
				JOINT Shoulder_R
				{
					OFFSET 12.9945 -0.242716 -4.98039
					CHANNELS 6 Xposition Yposition Zposition Zrotation Xrotation Yrotation 
					JOINT UpperArm_R
					{
						OFFSET -5.34813 0.0 0.0
						CHANNELS 6 Xposition Yposition Zposition Zrotation Xrotation Yrotation 
						JOINT LowerArm_R
						{
							OFFSET -24.3289 0.000322201 0.0
							CHANNELS 6 Xposition Yposition Zposition Zrotation Xrotation Yrotation 
							JOINT Hand_R
							{
								OFFSET -22.2915 -0.000108084 0.0
								CHANNELS 6 Xposition Yposition Zposition Zrotation Xrotation Yrotation 
								End Site
								{
									OFFSET 0.0 0.0 0.0
								}
							}
						}
					}
				}
			}
		}
		JOINT UpperLeg_L
		{
			OFFSET -2.19248 -6.46944 0.0
			CHANNELS 6 Xposition Yposition Zposition Zrotation Xrotation Yrotation 
			JOINT LowerLeg_L
			{
				OFFSET 39.0811 0.0 -1.23785e-05
				CHANNELS 6 Xposition Yposition Zposition Zrotation Xrotation Yrotation 
				JOINT Foot_L
				{
					OFFSET 40.9854 0.0 -1.26872e-05
					CHANNELS 6 Xposition Yposition Zposition Zrotation Xrotation Yrotation 
					JOINT Toes_L
					{
						OFFSET 11.7543 0.0 0.0
						CHANNELS 6 Xposition Yposition Zposition Zrotation Xrotation Yrotation 
						End Site
						{
							OFFSET 0.0 0.0 0.0
						}
					}
				}
			}
		}
		JOINT UpperLeg_R
		{
			OFFSET -2.19251 6.46944 0.0
			CHANNELS 6 Xposition Yposition Zposition Zrotation Xrotation Yrotation 
			JOINT LowerLeg_R
			{
				OFFSET -39.0811 -0.00228153 -0.0401928
				CHANNELS 6 Xposition Yposition Zposition Zrotation Xrotation Yrotation 
				JOINT Foot_R
				{
					OFFSET -40.9854 0.0 0.0
					CHANNELS 6 Xposition Yposition Zposition Zrotation Xrotation Yrotation 
					JOINT Toes_R
					{
						OFFSET -11.7543 0.0 0.0
						CHANNELS 6 Xposition Yposition Zposition Zrotation Xrotation Yrotation 
						End Site
						{
							OFFSET 0.0 0.0 0.0
						}
					}
				}
			}
		}
	}
}
MOTION
Frames:	6
Frame Time:	0.0333333
0.000000 0.000000 0.000000 0.000000 0.000000 -0.000000 -2.376210 92.706300 3.811900 87.662000 2.240700 1.656320 15.735700 0.000005 -0.000001 69.628900 86.685300 -66.757500 8.984550 -0.406207 -0.000000 -1.481440 -2.538760 5.709210 16.377300 -0.000001 -0.000001 1.053930 0.901559 0.236178 6.456720 -0.000001 -0.000000 -0.092346 2.728730 -2.753040 12.994200 -0.242716 4.980390 -93.152200 9.772200 -72.023500 5.348090 -0.000007 -0.000001 -72.428200 15.436800 2.072160 24.328600 0.000019 0.000005 9.812930 22.574700 -24.254000 22.291600 -0.000001 0.000005 -1.455330 5.058780 6.043010 12.994500 -0.242716 -4.980390 88.177000 5.693780 -72.213200 -5.348130 -0.000001 -0.000004 -67.334400 4.974550 -2.923800 -24.328900 0.000322 -0.000009 0.905189 3.644440 -13.967700 -22.291500 -0.000108 -0.000004 -10.079100 5.245550 1.547700 -2.192480 -6.469440 -0.000000 -171.339000 -3.000160 3.334200 39.081100 -0.000007 -0.000012 0.041779 -0.177927 13.214300 40.985400 -0.000006 -0.000013 -2.320710 12.949400 -70.287800 11.754300 -0.000000 0.000003 -0.000686 0.178466 -9.337670 -2.192510 6.469440 -0.000001 177.960000 8.679370 -174.841000 -39.081100 -0.002282 -0.040193 -0.006049 0.048558 10.940400 -40.985400 0.000008 0.000006 -6.765130 7.181050 -68.498400 -11.754300 -0.000006 -0.000006 -0.009116 0.264578 -5.826060
0.000000 0.000000 0.000000 0.000000 0.000000 -0.000000 -2.232780 92.756500 3.750370 87.742300 2.370400 1.361040 15.735700 0.000005 -0.000001 66.358400 86.611700 -63.639700 8.984550 -0.406207 -0.000000 -1.483260 -2.936160 5.398830 16.377300 -0.000001 -0.000001 0.212827 0.852907 -0.283248 6.456720 -0.000001 -0.000000 -1.662510 2.942930 -4.305640 12.994200 -0.242716 4.980390 -93.203300 10.019200 -72.167700 5.348090 -0.000007 -0.000001 -71.329900 13.017600 2.272850 24.328600 0.000019 0.000005 9.960800 23.054100 -24.154800 22.291600 -0.000001 0.000005 -1.263530 5.060260 6.009930 12.994500 -0.242716 -4.980390 88.251400 5.308790 -71.738900 -5.348130 -0.000001 -0.000004 -65.164900 -1.028000 -5.086330 -24.328900 0.000322 -0.000009 0.330326 1.756320 -10.663800 -22.291500 -0.000108 -0.000004 -10.958000 5.251570 1.390810 -2.192480 -6.469440 -0.000000 -171.416000 -3.639110 3.167270 39.081100 -0.000007 -0.000012 0.042773 -0.187977 12.819300 40.985400 -0.000006 -0.000013 -2.199380 13.676400 -70.020500 11.754300 -0.000000 0.000003 -0.000503 0.175694 -9.450270 -2.192510 6.469440 -0.000001 177.792000 8.753160 -174.899000 -39.081100 -0.002282 -0.040193 -0.007433 0.058843 10.372700 -40.985400 0.000008 0.000006 -7.159950 7.190670 -68.029500 -11.754300 -0.000006 -0.000006 -0.008891 0.262824 -5.897740
0.000000 0.000000 0.000000 0.000000 0.000000 -0.000000 -2.112430 92.869200 3.642560 87.881200 2.583740 0.716037 15.735700 0.000005 -0.000001 63.144900 86.735300 -60.772200 8.984550 -0.406207 -0.000000 -1.872100 -3.148290 4.694060 16.377300 -0.000001 -0.000001 -0.689240 0.557668 -0.842853 6.456720 -0.000001 -0.000000 -2.903840 2.542560 -5.525760 12.994200 -0.242716 4.980390 -93.157000 9.977160 -72.341500 5.348090 -0.000007 -0.000001 -69.904000 11.409700 2.249690 24.328600 0.000019 0.000005 9.769980 23.356300 -23.476900 22.291600 -0.000001 0.000005 -0.742896 5.046970 6.303740 12.994500 -0.242716 -4.980390 88.495400 4.481360 -71.418600 -5.348130 -0.000001 -0.000004 -62.199600 -8.684960 -7.769120 -24.328900 0.000322 -0.000009 -0.075221 -0.776907 -5.516800 -22.291500 -0.000108 -0.000004 -7.964270 5.216440 2.295910 -2.192480 -6.469440 -0.000000 -171.448000 -4.300730 2.767320 39.081100 -0.000007 -0.000012 0.024613 -0.115953 11.984600 40.985400 -0.000006 -0.000013 -3.291180 14.645500 -69.010900 11.754300 -0.000000 0.000003 -0.000763 0.179604 -9.291410 -2.192510 6.469440 -0.000001 177.565000 8.918550 -174.977000 -39.081100 -0.002282 -0.040193 -0.008787 0.075874 9.081000 -40.985400 0.000008 0.000006 -8.282940 7.228000 -67.025400 -11.754300 -0.000006 -0.000006 -0.008966 0.263412 -5.873690
0.000000 0.000000 0.000000 0.000000 0.000000 -0.000000 -2.040740 92.998900 3.501740 87.916100 2.731770 -0.068975 15.735700 0.000005 -0.000001 61.692200 86.995400 -59.782500 8.984550 -0.406207 -0.000000 -2.423650 -3.018430 3.756060 16.377300 -0.000001 -0.000001 -1.817760 0.028991 -1.539880 6.456720 -0.000001 -0.000000 -3.795430 1.604170 -6.385520 12.994200 -0.242716 4.980390 -93.054400 9.704770 -72.435100 5.348090 -0.000007 -0.000001 -68.271500 9.581580 2.011070 24.328600 0.000019 0.000005 9.796010 24.204400 -22.837100 22.291600 -0.000001 0.000005 -0.615273 5.032050 6.630430 12.994500 -0.242716 -4.980390 88.862600 3.352000 -71.245000 -5.348130 -0.000001 -0.000004 -58.095600 -17.845300 -10.284300 -24.328900 0.000322 -0.000009 -0.016639 -1.626950 -0.550757 -22.291500 -0.000108 -0.000004 -4.767560 5.152320 3.874640 -2.192480 -6.469440 -0.000000 -171.403000 -4.530530 2.282550 39.081100 -0.000007 -0.000012 0.007890 -0.040787 10.948900 40.985400 -0.000006 -0.000013 -4.853430 15.200900 -67.595900 11.754300 -0.000000 0.000003 -0.000527 0.176070 -9.435030 -2.192510 6.469440 -0.000001 177.493000 9.257700 -175.279000 -39.081100 -0.002282 -0.040193 -0.006486 0.071309 7.847740 -40.985400 0.000008 0.000006 -9.124500 7.492690 -65.890300 -11.754300 -0.000006 -0.000006 -0.008730 0.261555 -5.949610
0.000000 0.000000 0.000000 0.000000 0.000000 -0.000000 -2.002970 93.121600 3.387010 87.899200 2.869330 -0.784613 15.735700 0.000005 -0.000001 62.123100 87.275800 -60.823100 8.984550 -0.406207 -0.000000 -2.919770 -2.667660 2.532630 16.377300 -0.000001 -0.000001 -3.140660 -0.597965 -2.278720 6.456720 -0.000001 -0.000000 -4.490210 0.343433 -6.714860 12.994200 -0.242716 4.980390 -92.947500 9.327660 -72.376100 5.348090 -0.000007 -0.000001 -66.368200 7.026850 1.775640 24.328600 0.000019 0.000005 9.984990 24.851700 -22.729300 22.291600 -0.000001 0.000005 -0.430830 5.020170 6.887440 12.994500 -0.242716 -4.980390 89.340100 1.932100 -71.138400 -5.348130 -0.000001 -0.000004 -53.059100 -27.093500 -11.722300 -24.328900 0.000322 -0.000009 -0.000866 -2.938360 -0.000023 -22.291500 -0.000108 -0.000004 -0.686222 5.083960 5.469750 -2.192480 -6.469440 -0.000000 -171.330000 -4.444650 1.996220 39.081100 -0.000007 -0.000012 -0.001938 0.011294 9.731580 40.985400 -0.000006 -0.000013 -6.421760 15.358100 -66.233900 11.754300 -0.000000 0.000003 -0.000586 0.176968 -9.398530 -2.192510 6.469440 -0.000001 177.545000 9.827720 -175.919000 -39.081100 -0.002282 -0.040193 -0.004130 0.057207 7.442710 -40.985400 0.000008 0.000006 -9.345660 7.879450 -65.196100 -11.754300 -0.000006 -0.000006 -0.008328 0.258357 -6.080230
0.000000 0.000000 0.000000 0.000000 0.000000 -0.000000 -2.045180 93.210300 3.288270 87.798200 3.166640 -1.314220 15.735700 0.000005 -0.000001 62.817300 87.429400 -62.233000 8.984550 -0.406207 -0.000000 -3.181450 -2.403370 1.102140 16.377300 -0.000001 -0.000001 -4.233370 -1.340740 -2.928980 6.456720 -0.000001 -0.000000 -5.555800 -0.923583 -6.447130 12.994200 -0.242716 4.980390 -92.864000 9.026000 -72.313100 5.348090 -0.000007 -0.000001 -64.156100 3.850910 1.668370 24.328600 0.000019 0.000005 9.887900 24.200600 -23.036100 22.291600 -0.000001 0.000005 0.448710 5.013090 7.039250 12.994500 -0.242716 -4.980390 89.927900 0.204926 -70.585000 -5.348130 -0.000001 -0.000004 -48.266000 -35.690200 -12.821500 -24.328900 0.000322 -0.000009 -0.001297 -6.814700 -0.000042 -22.291500 -0.000108 -0.000004 4.527630 5.049980 6.243420 -2.192480 -6.469440 -0.000000 -171.183000 -3.993310 1.715380 39.081100 -0.000007 -0.000012 -0.005273 0.033866 8.848560 40.985400 -0.000006 -0.000013 -7.467100 15.192000 -65.338100 11.754300 -0.000000 0.000003 -0.000480 0.175348 -9.464360 -2.192510 6.469440 -0.000001 177.727000 10.573900 -176.395000 -39.081100 -0.002282 -0.040193 -0.002800 0.048916 7.158770 -40.985400 0.000008 0.000006 -9.378200 8.264230 -64.661700 -11.754300 -0.000006 -0.000006 -0.008063 0.256212 -6.167870
